<?xml version="1.0" standalone="no"?>
<!DOCTYPE svg PUBLIC "-//W3C//DTD SVG 20010904//EN"
 "http://www.w3.org/TR/2001/REC-SVG-20010904/DTD/svg10.dtd">
<svg version="1.0" xmlns="http://www.w3.org/2000/svg"
 width="113.000000pt" height="117.000000pt" viewBox="0 0 113.000000 117.000000"
 preserveAspectRatio="xMidYMid meet">
<metadata>
Created by potrace 1.16, written by Peter Selinger 2001-2019
</metadata>
<g transform="translate(0.000000,117.000000) scale(0.100000,-0.100000)"
fill="#000000" stroke="none">
<path d="M166 539 c-15 -18 -15 -23 -5 -30 8 -5 15 -4 17 1 7 20 20 9 18 -14
-2 -18 25 -50 132 -152 74 -71 141 -128 148 -126 7 1 11 -5 8 -15 -2 -11 6
-25 21 -36 20 -14 24 -15 19 -2 -4 10 -2 13 8 10 9 -4 13 -15 11 -29 -3 -13 0
-27 6 -30 15 -9 184 161 175 176 -4 7 -3 8 5 4 7 -5 22 3 37 17 18 19 21 26
11 30 -15 6 -74 -40 -70 -54 2 -4 -10 -16 -26 -25 -16 -10 -35 -28 -42 -40 -6
-13 -17 -21 -22 -17 -6 3 -7 1 -4 -4 10 -15 -16 -34 -32 -23 -8 4 -20 6 -28 3
-7 -3 -29 9 -48 26 -20 17 -32 31 -28 31 4 0 -8 16 -27 35 -19 19 -36 31 -39
26 -3 -4 -17 3 -31 17 l-25 24 25 -12 25 -12 -21 21 c-11 12 -35 29 -54 39
-19 9 -36 24 -38 32 -4 11 2 10 19 -5 l24 -20 -19 23 c-11 12 -26 20 -34 17
-9 -3 -12 0 -9 9 4 10 1 13 -9 9 -11 -4 -15 0 -12 13 2 14 -2 18 -16 16 -13
-3 -17 1 -13 12 3 8 -1 20 -8 26 -8 7 -14 15 -13 18 4 36 -10 41 -36 11z"/>
<path d="M695 125 c-111 -116 -123 -123 -167 -102 -18 9 -34 12 -36 7 -2 -5
-14 1 -28 12 -16 14 -20 24 -13 29 25 15 -32 70 -76 74 -5 0 -9 7 -7 14 3 17
-24 55 -32 43 -14 -23 31 -91 51 -79 5 3 19 -3 32 -12 18 -14 21 -20 11 -26
-8 -5 -11 -4 -7 2 4 6 0 14 -9 17 -39 15 -34 2 20 -51 45 -45 59 -54 67 -42 6
10 9 10 9 2 0 -9 20 -13 68 -13 68 0 68 0 115 48 45 45 67 83 29 49 -17 -16
-32 -14 -32 4 0 10 41 24 58 20 24 -4 40 19 40 59 0 22 0 40 -1 40 -1 0 -42
-43 -92 -95z"/>
</g>
</svg>
